<mxfile host="Electron" modified="2024-02-18T15:17:48.258Z" agent="Mozilla/5.0 (X11; Linux x86_64) AppleWebKit/537.36 (KHTML, like Gecko) draw.io/23.0.2 Chrome/120.0.6099.109 Electron/28.1.0 Safari/537.36" version="23.0.2" etag="PvjWK3knQpgYrJNAZ9J1" type="device" pages="3">
  <diagram id="o9dws-ldIxvBaaEmp4Kb" name="aTES, high-level">
    <mxGraphModel dx="1434" dy="963" grid="1" gridSize="10" guides="1" tooltips="1" connect="1" arrows="1" fold="1" page="1" pageScale="1" pageWidth="1100" pageHeight="850" math="0" shadow="0">
      <root>
        <mxCell id="0" />
        <mxCell id="1" parent="0" />
        <mxCell id="3" value="" style="points=[];aspect=fixed;html=1;align=center;shadow=0;dashed=0;image;image=img/lib/allied_telesis/computer_and_terminals/Personal_Computer.svg;rounded=1;" parent="1" vertex="1">
          <mxGeometry x="240" y="60" width="45.6" height="61.800000000000004" as="geometry" />
        </mxCell>
        <mxCell id="4" value="" style="points=[];aspect=fixed;html=1;align=center;shadow=0;dashed=0;image;image=img/lib/allied_telesis/computer_and_terminals/Personal_Computer.svg;rounded=1;" parent="1" vertex="1">
          <mxGeometry x="483" y="61" width="45.6" height="61.800000000000004" as="geometry" />
        </mxCell>
        <mxCell id="5" value="" style="html=1;aspect=fixed;strokeColor=none;shadow=0;align=center;verticalAlign=top;fillColor=#3B8DF1;shape=mxgraph.gcp2.globe_world;fillStyle=auto;rounded=1;" parent="1" vertex="1">
          <mxGeometry x="330" y="150" width="100" height="95" as="geometry" />
        </mxCell>
        <mxCell id="6" value="Popug&lt;br&gt;Manager" style="shape=umlActor;verticalLabelPosition=bottom;verticalAlign=top;html=1;outlineConnect=0;rounded=1;" parent="1" vertex="1">
          <mxGeometry x="200" y="60" width="30" height="60" as="geometry" />
        </mxCell>
        <mxCell id="7" value="" style="endArrow=none;html=1;rounded=1;" parent="1" edge="1">
          <mxGeometry width="50" height="50" relative="1" as="geometry">
            <mxPoint x="10" y="280" as="sourcePoint" />
            <mxPoint x="1090" y="280" as="targetPoint" />
          </mxGeometry>
        </mxCell>
        <mxCell id="14" value="&lt;font style=&quot;font-size: 14px;&quot;&gt;Awesome Task Exchange System (aTES)&lt;/font&gt;" style="edgeLabel;html=1;align=center;verticalAlign=middle;resizable=0;points=[];rounded=1;" parent="7" vertex="1" connectable="0">
          <mxGeometry x="-0.0778" y="3" relative="1" as="geometry">
            <mxPoint x="52" y="1" as="offset" />
          </mxGeometry>
        </mxCell>
        <mxCell id="10" value="Popug&lt;br&gt;Slave" style="shape=umlActor;verticalLabelPosition=bottom;verticalAlign=top;html=1;outlineConnect=0;rounded=1;" parent="1" vertex="1">
          <mxGeometry x="440" y="60" width="30" height="60" as="geometry" />
        </mxCell>
        <mxCell id="11" value="" style="curved=1;endArrow=classic;html=1;exitX=1.009;exitY=0.68;exitDx=0;exitDy=0;exitPerimeter=0;entryX=0.25;entryY=0;entryDx=0;entryDy=0;rounded=1;" parent="1" source="3" target="8" edge="1">
          <mxGeometry width="50" height="50" relative="1" as="geometry">
            <mxPoint x="620" y="440" as="sourcePoint" />
            <mxPoint x="670" y="390" as="targetPoint" />
            <Array as="points">
              <mxPoint x="350" y="120" />
              <mxPoint x="380" y="200" />
            </Array>
          </mxGeometry>
        </mxCell>
        <mxCell id="13" value="" style="curved=1;endArrow=classic;html=1;exitX=0.965;exitY=0.744;exitDx=0;exitDy=0;exitPerimeter=0;entryX=0.75;entryY=0;entryDx=0;entryDy=0;rounded=1;" parent="1" source="4" target="8" edge="1">
          <mxGeometry width="50" height="50" relative="1" as="geometry">
            <mxPoint x="296.0103999999999" y="112.02400000000011" as="sourcePoint" />
            <mxPoint x="360" y="330" as="targetPoint" />
            <Array as="points">
              <mxPoint x="560" y="130" />
              <mxPoint x="350" y="190" />
            </Array>
          </mxGeometry>
        </mxCell>
        <mxCell id="ZE0SkVhjRDUGzyv0xyRb-62" value="k8s cluster" style="swimlane;horizontal=0;whiteSpace=wrap;html=1;labelBackgroundColor=none;fillColor=#f5f5f5;fontColor=#333333;strokeColor=#666666;" parent="1" vertex="1">
          <mxGeometry x="20" y="320" width="1060" height="640" as="geometry" />
        </mxCell>
        <mxCell id="ZE0SkVhjRDUGzyv0xyRb-63" value="prometheus" style="rounded=1;whiteSpace=wrap;html=1;fillColor=#f5f5f5;strokeColor=#666666;fontColor=#333333;" parent="ZE0SkVhjRDUGzyv0xyRb-62" vertex="1">
          <mxGeometry x="900" y="121" width="120" height="60" as="geometry" />
        </mxCell>
        <mxCell id="8" value="backend&lt;br&gt;proxy" style="rounded=1;whiteSpace=wrap;html=1;fillColor=#f5f5f5;fontColor=#333333;strokeColor=#666666;" parent="ZE0SkVhjRDUGzyv0xyRb-62" vertex="1">
          <mxGeometry x="310" y="20" width="120" height="60" as="geometry" />
        </mxCell>
        <mxCell id="15" value="" style="curved=1;endArrow=classic;html=1;fontSize=14;exitX=0;exitY=0.5;exitDx=0;exitDy=0;entryX=0.25;entryY=0;entryDx=0;entryDy=0;rounded=1;" parent="ZE0SkVhjRDUGzyv0xyRb-62" source="8" target="kLdtUCXu5ZyMUZeLOLpT-15" edge="1">
          <mxGeometry width="50" height="50" relative="1" as="geometry">
            <mxPoint x="160" y="70" as="sourcePoint" />
            <mxPoint x="210" y="20" as="targetPoint" />
            <Array as="points">
              <mxPoint x="180" y="60" />
            </Array>
          </mxGeometry>
        </mxCell>
        <mxCell id="ZE0SkVhjRDUGzyv0xyRb-30" value="Message&lt;br&gt;Broker" style="rounded=1;whiteSpace=wrap;html=1;fillColor=#ffe6cc;strokeColor=#d79b00;" parent="ZE0SkVhjRDUGzyv0xyRb-62" vertex="1">
          <mxGeometry x="370" y="425" width="120" height="60" as="geometry" />
        </mxCell>
        <mxCell id="ZE0SkVhjRDUGzyv0xyRb-31" value="" style="curved=1;endArrow=classic;html=1;fontSize=14;exitX=1;exitY=0.5;exitDx=0;exitDy=0;rounded=1;entryX=0;entryY=0.25;entryDx=0;entryDy=0;" parent="ZE0SkVhjRDUGzyv0xyRb-62" source="8" target="ZE0SkVhjRDUGzyv0xyRb-15" edge="1">
          <mxGeometry width="50" height="50" relative="1" as="geometry">
            <mxPoint x="320" y="60" as="sourcePoint" />
            <mxPoint x="490" y="200" as="targetPoint" />
            <Array as="points">
              <mxPoint x="520" y="60" />
              <mxPoint x="490" y="320" />
            </Array>
          </mxGeometry>
        </mxCell>
        <mxCell id="ZE0SkVhjRDUGzyv0xyRb-32" value="DB" style="shape=datastore;whiteSpace=wrap;html=1;fillColor=#f5f5f5;strokeColor=#666666;fontColor=#333333;" parent="ZE0SkVhjRDUGzyv0xyRb-62" vertex="1">
          <mxGeometry x="50" y="245" width="60" height="60" as="geometry" />
        </mxCell>
        <mxCell id="ZE0SkVhjRDUGzyv0xyRb-33" value="" style="endArrow=none;startArrow=none;html=1;entryX=1;entryY=0.5;entryDx=0;entryDy=0;exitX=0;exitY=0.5;exitDx=0;exitDy=0;startFill=0;endFill=0;" parent="ZE0SkVhjRDUGzyv0xyRb-62" source="9" target="ZE0SkVhjRDUGzyv0xyRb-32" edge="1">
          <mxGeometry width="50" height="50" relative="1" as="geometry">
            <mxPoint x="150" y="275" as="sourcePoint" />
            <mxPoint x="100" y="275" as="targetPoint" />
          </mxGeometry>
        </mxCell>
        <mxCell id="ZE0SkVhjRDUGzyv0xyRb-57" style="edgeStyle=none;html=1;exitX=0.5;exitY=1;exitDx=0;exitDy=0;entryX=0.5;entryY=0;entryDx=0;entryDy=0;labelBackgroundColor=#FFFFCC;labelBorderColor=#B3B3B3;startArrow=none;startFill=0;endArrow=classic;endFill=1;" parent="ZE0SkVhjRDUGzyv0xyRb-62" source="ZE0SkVhjRDUGzyv0xyRb-39" target="ZE0SkVhjRDUGzyv0xyRb-15" edge="1">
          <mxGeometry relative="1" as="geometry">
            <mxPoint x="610" y="255" as="sourcePoint" />
          </mxGeometry>
        </mxCell>
        <mxCell id="ZE0SkVhjRDUGzyv0xyRb-39" value="Tasks&lt;br&gt;Assigner" style="rounded=1;whiteSpace=wrap;html=1;fillColor=#dae8fc;strokeColor=#6c8ebf;" parent="ZE0SkVhjRDUGzyv0xyRb-62" vertex="1">
          <mxGeometry x="550" y="200" width="120" height="60" as="geometry" />
        </mxCell>
        <mxCell id="ZE0SkVhjRDUGzyv0xyRb-42" value="Telegram&lt;br&gt;Notificator" style="rounded=1;whiteSpace=wrap;html=1;fillColor=#f5f5f5;strokeColor=#666666;align=left;verticalAlign=top;fontColor=#333333;" parent="ZE0SkVhjRDUGzyv0xyRb-62" vertex="1">
          <mxGeometry x="340" y="535" width="120" height="60" as="geometry" />
        </mxCell>
        <mxCell id="ZE0SkVhjRDUGzyv0xyRb-43" value="Email&lt;br&gt;Notificator" style="rounded=1;whiteSpace=wrap;html=1;fillColor=#f5f5f5;strokeColor=#666666;align=left;verticalAlign=top;fontColor=#333333;" parent="ZE0SkVhjRDUGzyv0xyRb-62" vertex="1">
          <mxGeometry x="370" y="555" width="120" height="60" as="geometry" />
        </mxCell>
        <mxCell id="ZE0SkVhjRDUGzyv0xyRb-44" value="" style="curved=1;endArrow=classic;html=1;labelBackgroundColor=#FFFFCC;labelBorderColor=#B3B3B3;exitX=0.5;exitY=1;exitDx=0;exitDy=0;entryX=0.5;entryY=0;entryDx=0;entryDy=0;fillColor=#ffe6cc;strokeColor=#d79b00;" parent="ZE0SkVhjRDUGzyv0xyRb-62" source="ZE0SkVhjRDUGzyv0xyRb-30" target="ZE0SkVhjRDUGzyv0xyRb-42" edge="1">
          <mxGeometry width="50" height="50" relative="1" as="geometry">
            <mxPoint x="910" y="105" as="sourcePoint" />
            <mxPoint x="960" y="55" as="targetPoint" />
            <Array as="points">
              <mxPoint x="450" y="505" />
              <mxPoint x="390" y="505" />
            </Array>
          </mxGeometry>
        </mxCell>
        <mxCell id="ZE0SkVhjRDUGzyv0xyRb-45" value="" style="curved=1;endArrow=classic;html=1;labelBackgroundColor=#FFFFCC;labelBorderColor=#B3B3B3;exitX=0.5;exitY=1;exitDx=0;exitDy=0;entryX=0.5;entryY=0;entryDx=0;entryDy=0;fillColor=#ffe6cc;strokeColor=#d79b00;" parent="ZE0SkVhjRDUGzyv0xyRb-62" source="ZE0SkVhjRDUGzyv0xyRb-30" target="ZE0SkVhjRDUGzyv0xyRb-43" edge="1">
          <mxGeometry width="50" height="50" relative="1" as="geometry">
            <mxPoint x="870" y="315" as="sourcePoint" />
            <mxPoint x="820" y="355" as="targetPoint" />
            <Array as="points">
              <mxPoint x="470" y="505" />
              <mxPoint x="420" y="535" />
            </Array>
          </mxGeometry>
        </mxCell>
        <mxCell id="ZE0SkVhjRDUGzyv0xyRb-46" value="" style="curved=1;endArrow=classic;html=1;fontSize=14;exitX=1;exitY=0.5;exitDx=0;exitDy=0;rounded=1;entryX=0;entryY=0.25;entryDx=0;entryDy=0;" parent="ZE0SkVhjRDUGzyv0xyRb-62" source="8" target="ZE0SkVhjRDUGzyv0xyRb-39" edge="1">
          <mxGeometry width="50" height="50" relative="1" as="geometry">
            <mxPoint x="440" y="60" as="sourcePoint" />
            <mxPoint x="560" y="230" as="targetPoint" />
            <Array as="points">
              <mxPoint x="520" y="50" />
              <mxPoint x="530" y="210" />
            </Array>
          </mxGeometry>
        </mxCell>
        <mxCell id="ZE0SkVhjRDUGzyv0xyRb-48" value="" style="curved=1;endArrow=classic;html=1;labelBackgroundColor=#FFFFCC;labelBorderColor=#B3B3B3;exitX=0;exitY=0.75;exitDx=0;exitDy=0;entryX=1;entryY=0.367;entryDx=0;entryDy=0;entryPerimeter=0;" parent="ZE0SkVhjRDUGzyv0xyRb-62" source="ZE0SkVhjRDUGzyv0xyRb-39" target="9" edge="1">
          <mxGeometry width="50" height="50" relative="1" as="geometry">
            <mxPoint x="550" y="240" as="sourcePoint" />
            <mxPoint x="600" y="215" as="targetPoint" />
            <Array as="points">
              <mxPoint x="360" y="267" />
            </Array>
          </mxGeometry>
        </mxCell>
        <mxCell id="ZE0SkVhjRDUGzyv0xyRb-49" value="" style="curved=1;endArrow=classic;html=1;labelBackgroundColor=#FFFFCC;labelBorderColor=#B3B3B3;exitX=0;exitY=0.75;exitDx=0;exitDy=0;entryX=1;entryY=0.75;entryDx=0;entryDy=0;" parent="ZE0SkVhjRDUGzyv0xyRb-62" source="ZE0SkVhjRDUGzyv0xyRb-15" target="9" edge="1">
          <mxGeometry width="50" height="50" relative="1" as="geometry">
            <mxPoint x="560" y="250" as="sourcePoint" />
            <mxPoint x="280" y="277.02" as="targetPoint" />
            <Array as="points">
              <mxPoint x="400" y="285" />
            </Array>
          </mxGeometry>
        </mxCell>
        <mxCell id="ZE0SkVhjRDUGzyv0xyRb-51" value="" style="curved=1;endArrow=none;html=1;labelBackgroundColor=#FFFFCC;labelBorderColor=#B3B3B3;exitX=1;exitY=0.25;exitDx=0;exitDy=0;startArrow=classic;startFill=1;endFill=0;entryX=0.75;entryY=1;entryDx=0;entryDy=0;fillColor=#ffe6cc;strokeColor=#d79b00;" parent="ZE0SkVhjRDUGzyv0xyRb-62" source="ZE0SkVhjRDUGzyv0xyRb-30" target="ZE0SkVhjRDUGzyv0xyRb-15" edge="1">
          <mxGeometry width="50" height="50" relative="1" as="geometry">
            <mxPoint x="680" y="235" as="sourcePoint" />
            <mxPoint x="550" y="395" as="targetPoint" />
            <Array as="points">
              <mxPoint x="610" y="435" />
            </Array>
          </mxGeometry>
        </mxCell>
        <mxCell id="ZE0SkVhjRDUGzyv0xyRb-60" style="edgeStyle=none;html=1;exitX=0.75;exitY=0;exitDx=0;exitDy=0;entryX=0.75;entryY=1;entryDx=0;entryDy=0;labelBackgroundColor=#FFFFCC;labelBorderColor=#B3B3B3;startArrow=none;startFill=0;endArrow=classic;endFill=1;" parent="ZE0SkVhjRDUGzyv0xyRb-62" source="ZE0SkVhjRDUGzyv0xyRb-52" target="9" edge="1">
          <mxGeometry relative="1" as="geometry" />
        </mxCell>
        <mxCell id="ZE0SkVhjRDUGzyv0xyRb-52" value="Accounting svc" style="rounded=1;whiteSpace=wrap;html=1;fillColor=#d5e8d4;strokeColor=#82b366;" parent="ZE0SkVhjRDUGzyv0xyRb-62" vertex="1">
          <mxGeometry x="150" y="365" width="120" height="60" as="geometry" />
        </mxCell>
        <mxCell id="ZE0SkVhjRDUGzyv0xyRb-53" value="DB" style="shape=datastore;whiteSpace=wrap;html=1;fillColor=#f5f5f5;strokeColor=#666666;fontColor=#333333;" parent="ZE0SkVhjRDUGzyv0xyRb-62" vertex="1">
          <mxGeometry x="50" y="365" width="60" height="60" as="geometry" />
        </mxCell>
        <mxCell id="ZE0SkVhjRDUGzyv0xyRb-54" value="" style="endArrow=none;startArrow=none;html=1;entryX=1;entryY=0.5;entryDx=0;entryDy=0;exitX=0;exitY=0.5;exitDx=0;exitDy=0;startFill=0;endFill=0;" parent="ZE0SkVhjRDUGzyv0xyRb-62" source="ZE0SkVhjRDUGzyv0xyRb-52" target="ZE0SkVhjRDUGzyv0xyRb-53" edge="1">
          <mxGeometry width="50" height="50" relative="1" as="geometry">
            <mxPoint x="150" y="395" as="sourcePoint" />
            <mxPoint x="100" y="395" as="targetPoint" />
          </mxGeometry>
        </mxCell>
        <mxCell id="ZE0SkVhjRDUGzyv0xyRb-55" value="" style="curved=1;endArrow=classic;html=1;fontSize=14;rounded=1;entryX=1;entryY=0.25;entryDx=0;entryDy=0;" parent="ZE0SkVhjRDUGzyv0xyRb-62" target="ZE0SkVhjRDUGzyv0xyRb-52" edge="1">
          <mxGeometry width="50" height="50" relative="1" as="geometry">
            <mxPoint x="310" y="50" as="sourcePoint" />
            <mxPoint x="190" y="360" as="targetPoint" />
            <Array as="points">
              <mxPoint x="260" y="60" />
              <mxPoint x="320" y="370" />
            </Array>
          </mxGeometry>
        </mxCell>
        <mxCell id="ZE0SkVhjRDUGzyv0xyRb-56" value="" style="curved=1;endArrow=none;html=1;labelBackgroundColor=#FFFFCC;labelBorderColor=#B3B3B3;exitX=1;exitY=0.75;exitDx=0;exitDy=0;entryX=0.25;entryY=0;entryDx=0;entryDy=0;startArrow=classic;startFill=1;endFill=0;fillColor=#ffe6cc;strokeColor=#d79b00;" parent="ZE0SkVhjRDUGzyv0xyRb-62" source="ZE0SkVhjRDUGzyv0xyRb-52" target="ZE0SkVhjRDUGzyv0xyRb-30" edge="1">
          <mxGeometry width="50" height="50" relative="1" as="geometry">
            <mxPoint x="650" y="375" as="sourcePoint" />
            <mxPoint x="500" y="450" as="targetPoint" />
            <Array as="points">
              <mxPoint x="320" y="410" />
              <mxPoint x="390" y="410" />
            </Array>
          </mxGeometry>
        </mxCell>
        <mxCell id="ZE0SkVhjRDUGzyv0xyRb-64" value="grafana" style="rounded=1;whiteSpace=wrap;html=1;fillColor=#f5f5f5;strokeColor=#666666;fontColor=#333333;" parent="ZE0SkVhjRDUGzyv0xyRb-62" vertex="1">
          <mxGeometry x="900" y="206" width="120" height="60" as="geometry" />
        </mxCell>
        <mxCell id="ZE0SkVhjRDUGzyv0xyRb-65" value="logs" style="rounded=1;whiteSpace=wrap;html=1;fillColor=#f5f5f5;strokeColor=#666666;fontColor=#333333;" parent="ZE0SkVhjRDUGzyv0xyRb-62" vertex="1">
          <mxGeometry x="900" y="41" width="120" height="60" as="geometry" />
        </mxCell>
        <mxCell id="kLdtUCXu5ZyMUZeLOLpT-17" style="edgeStyle=orthogonalEdgeStyle;rounded=0;orthogonalLoop=1;jettySize=auto;html=1;exitX=0;exitY=0.5;exitDx=0;exitDy=0;entryX=1;entryY=0.5;entryDx=0;entryDy=0;endArrow=none;endFill=0;" edge="1" parent="ZE0SkVhjRDUGzyv0xyRb-62" source="kLdtUCXu5ZyMUZeLOLpT-15" target="kLdtUCXu5ZyMUZeLOLpT-16">
          <mxGeometry relative="1" as="geometry" />
        </mxCell>
        <mxCell id="kLdtUCXu5ZyMUZeLOLpT-18" style="edgeStyle=orthogonalEdgeStyle;rounded=0;orthogonalLoop=1;jettySize=auto;html=1;exitX=0.75;exitY=1;exitDx=0;exitDy=0;entryX=0.75;entryY=0;entryDx=0;entryDy=0;" edge="1" parent="ZE0SkVhjRDUGzyv0xyRb-62" source="kLdtUCXu5ZyMUZeLOLpT-15" target="9">
          <mxGeometry relative="1" as="geometry" />
        </mxCell>
        <mxCell id="kLdtUCXu5ZyMUZeLOLpT-15" value="Authentication and&lt;br&gt;Authorization svc" style="rounded=1;whiteSpace=wrap;html=1;fillColor=#f8cecc;strokeColor=#b85450;" vertex="1" parent="ZE0SkVhjRDUGzyv0xyRb-62">
          <mxGeometry x="150" y="120" width="120" height="60" as="geometry" />
        </mxCell>
        <mxCell id="kLdtUCXu5ZyMUZeLOLpT-16" value="DB" style="shape=datastore;whiteSpace=wrap;html=1;fillColor=#f5f5f5;strokeColor=#666666;fontColor=#333333;" vertex="1" parent="ZE0SkVhjRDUGzyv0xyRb-62">
          <mxGeometry x="50" y="120" width="60" height="60" as="geometry" />
        </mxCell>
        <mxCell id="9" value="Users svc&lt;br&gt;(with roles)" style="rounded=1;whiteSpace=wrap;html=1;fillColor=#f8cecc;strokeColor=#b85450;" parent="ZE0SkVhjRDUGzyv0xyRb-62" vertex="1">
          <mxGeometry x="150" y="245" width="120" height="60" as="geometry" />
        </mxCell>
        <mxCell id="ZE0SkVhjRDUGzyv0xyRb-15" value="Tasks svc" style="rounded=1;whiteSpace=wrap;html=1;fillColor=#dae8fc;strokeColor=#6c8ebf;" parent="ZE0SkVhjRDUGzyv0xyRb-62" vertex="1">
          <mxGeometry x="550" y="310" width="120" height="60" as="geometry" />
        </mxCell>
        <mxCell id="ZE0SkVhjRDUGzyv0xyRb-34" value="" style="endArrow=none;startArrow=none;html=1;exitX=1;exitY=0.5;exitDx=0;exitDy=0;entryX=0;entryY=0.5;entryDx=0;entryDy=0;startFill=0;endFill=0;" parent="ZE0SkVhjRDUGzyv0xyRb-62" source="ZE0SkVhjRDUGzyv0xyRb-15" target="ZE0SkVhjRDUGzyv0xyRb-16" edge="1">
          <mxGeometry width="50" height="50" relative="1" as="geometry">
            <mxPoint x="610" y="400" as="sourcePoint" />
            <mxPoint x="650" y="400" as="targetPoint" />
          </mxGeometry>
        </mxCell>
        <mxCell id="ZE0SkVhjRDUGzyv0xyRb-16" value="DB" style="shape=datastore;whiteSpace=wrap;html=1;fillColor=#f5f5f5;strokeColor=#666666;fontColor=#333333;" parent="ZE0SkVhjRDUGzyv0xyRb-62" vertex="1">
          <mxGeometry x="710" y="310" width="60" height="60" as="geometry" />
        </mxCell>
        <mxCell id="azdJJvQkMYOLHyuyVh-8-17" value="More details at&lt;br&gt;separate tabs" style="ellipse;shape=cloud;whiteSpace=wrap;html=1;labelBackgroundColor=none;strokeColor=#CCCCCC;fillColor=#FFFFCC;fontStyle=1" parent="ZE0SkVhjRDUGzyv0xyRb-62" vertex="1">
          <mxGeometry x="650" y="30" width="140" height="90" as="geometry" />
        </mxCell>
        <mxCell id="bpAk028MX5c1K12hNeHP-15" value="On Task creation or&lt;br&gt;Task Status update." style="ellipse;shape=cloud;whiteSpace=wrap;html=1;labelBackgroundColor=none;strokeColor=#CCCCCC;fillColor=#FFFFCC;fontStyle=0" vertex="1" parent="ZE0SkVhjRDUGzyv0xyRb-62">
          <mxGeometry x="610" y="430" width="160" height="90" as="geometry" />
        </mxCell>
        <mxCell id="bpAk028MX5c1K12hNeHP-17" value="Email messages on calculation complete." style="ellipse;shape=cloud;whiteSpace=wrap;html=1;labelBackgroundColor=none;strokeColor=#CCCCCC;fillColor=#FFFFCC;fontStyle=0" vertex="1" parent="ZE0SkVhjRDUGzyv0xyRb-62">
          <mxGeometry x="140" y="460" width="160" height="90" as="geometry" />
        </mxCell>
        <mxCell id="bpAk028MX5c1K12hNeHP-18" value="" style="curved=1;endArrow=none;html=1;labelBackgroundColor=#FFFFCC;labelBorderColor=#B3B3B3;exitX=0.5;exitY=0;exitDx=0;exitDy=0;entryX=1;entryY=1;entryDx=0;entryDy=0;startArrow=classic;startFill=1;endFill=0;fillColor=#ffe6cc;strokeColor=#d79b00;" edge="1" parent="ZE0SkVhjRDUGzyv0xyRb-62" source="ZE0SkVhjRDUGzyv0xyRb-30" target="9">
          <mxGeometry width="50" height="50" relative="1" as="geometry">
            <mxPoint x="280" y="420" as="sourcePoint" />
            <mxPoint x="410" y="435" as="targetPoint" />
            <Array as="points">
              <mxPoint x="430" y="390" />
              <mxPoint x="380" y="340" />
            </Array>
          </mxGeometry>
        </mxCell>
        <mxCell id="kLdtUCXu5ZyMUZeLOLpT-19" value="Legend:" style="text;html=1;strokeColor=none;fillColor=none;align=left;verticalAlign=top;whiteSpace=wrap;rounded=0;fontSize=20;fontStyle=5" vertex="1" parent="1">
          <mxGeometry x="760" y="10" width="120" height="30" as="geometry" />
        </mxCell>
        <mxCell id="kLdtUCXu5ZyMUZeLOLpT-21" value="DB" style="shape=datastore;whiteSpace=wrap;html=1;fillColor=#f5f5f5;strokeColor=#666666;fontColor=#333333;" vertex="1" parent="1">
          <mxGeometry x="760" y="90" width="30" height="30" as="geometry" />
        </mxCell>
        <mxCell id="kLdtUCXu5ZyMUZeLOLpT-23" value="A database." style="text;html=1;strokeColor=none;fillColor=none;align=left;verticalAlign=top;whiteSpace=wrap;rounded=0;" vertex="1" parent="1">
          <mxGeometry x="840" y="90" width="240" height="30" as="geometry" />
        </mxCell>
        <mxCell id="kLdtUCXu5ZyMUZeLOLpT-26" value="" style="curved=1;endArrow=classic;html=1;rounded=0;" edge="1" parent="1">
          <mxGeometry width="50" height="50" relative="1" as="geometry">
            <mxPoint x="760" y="160" as="sourcePoint" />
            <mxPoint x="800" y="140" as="targetPoint" />
            <Array as="points">
              <mxPoint x="805" y="160" />
              <mxPoint x="760" y="140" />
            </Array>
          </mxGeometry>
        </mxCell>
        <mxCell id="kLdtUCXu5ZyMUZeLOLpT-27" value="gRPC / REST message requests." style="text;html=1;strokeColor=none;fillColor=none;align=left;verticalAlign=top;whiteSpace=wrap;rounded=0;" vertex="1" parent="1">
          <mxGeometry x="840" y="130" width="240" height="30" as="geometry" />
        </mxCell>
        <mxCell id="kLdtUCXu5ZyMUZeLOLpT-28" value="" style="curved=1;endArrow=classic;html=1;rounded=0;fillColor=#ffe6cc;strokeColor=#d79b00;" edge="1" parent="1">
          <mxGeometry width="50" height="50" relative="1" as="geometry">
            <mxPoint x="760" y="200" as="sourcePoint" />
            <mxPoint x="800" y="180" as="targetPoint" />
            <Array as="points">
              <mxPoint x="805" y="200" />
              <mxPoint x="760" y="180" />
            </Array>
          </mxGeometry>
        </mxCell>
        <mxCell id="kLdtUCXu5ZyMUZeLOLpT-29" value="Message broker messages." style="text;html=1;strokeColor=none;fillColor=none;align=left;verticalAlign=top;whiteSpace=wrap;rounded=0;" vertex="1" parent="1">
          <mxGeometry x="840" y="170" width="240" height="30" as="geometry" />
        </mxCell>
        <mxCell id="kLdtUCXu5ZyMUZeLOLpT-30" value="" style="rounded=1;whiteSpace=wrap;html=1;" vertex="1" parent="1">
          <mxGeometry x="760" y="50" width="40" height="30" as="geometry" />
        </mxCell>
        <mxCell id="kLdtUCXu5ZyMUZeLOLpT-31" value="A service." style="text;html=1;strokeColor=none;fillColor=none;align=left;verticalAlign=top;whiteSpace=wrap;rounded=0;" vertex="1" parent="1">
          <mxGeometry x="840" y="52.5" width="240" height="30" as="geometry" />
        </mxCell>
        <mxCell id="bpAk028MX5c1K12hNeHP-16" value="" style="endArrow=oval;dashed=1;html=1;dashPattern=1 3;strokeWidth=2;rounded=0;endFill=1;exitX=0.25;exitY=0.25;exitDx=0;exitDy=0;exitPerimeter=0;" edge="1" parent="1" source="bpAk028MX5c1K12hNeHP-15">
          <mxGeometry width="50" height="50" relative="1" as="geometry">
            <mxPoint x="590" y="800" as="sourcePoint" />
            <mxPoint x="610" y="740" as="targetPoint" />
          </mxGeometry>
        </mxCell>
        <mxCell id="bpAk028MX5c1K12hNeHP-19" value="" style="endArrow=oval;dashed=1;html=1;dashPattern=1 3;strokeWidth=2;rounded=0;endFill=1;exitX=0.88;exitY=0.25;exitDx=0;exitDy=0;exitPerimeter=0;" edge="1" parent="1" source="bpAk028MX5c1K12hNeHP-17">
          <mxGeometry width="50" height="50" relative="1" as="geometry">
            <mxPoint x="680" y="783" as="sourcePoint" />
            <mxPoint x="400" y="670" as="targetPoint" />
          </mxGeometry>
        </mxCell>
      </root>
    </mxGraphModel>
  </diagram>
  <diagram id="buXJjY9N1D2188yO0d1W" name="front">
    <mxGraphModel dx="1434" dy="963" grid="1" gridSize="10" guides="1" tooltips="1" connect="1" arrows="1" fold="1" page="1" pageScale="1" pageWidth="1100" pageHeight="850" math="0" shadow="0">
      <root>
        <mxCell id="0" />
        <mxCell id="1" parent="0" />
        <mxCell id="k3TtQZU8ST6wzHPOBFzH-3" value="" style="shape=document;whiteSpace=wrap;html=1;boundedLbl=1;sketch=1;hachureGap=4;jiggle=2;curveFitting=1;fontFamily=Architects Daughter;fontSource=https%3A%2F%2Ffonts.googleapis.com%2Fcss%3Ffamily%3DArchitects%2BDaughter;fontSize=20;size=0.21311475409836064;" parent="1" vertex="1">
          <mxGeometry x="120" y="120" width="840" height="610" as="geometry" />
        </mxCell>
        <mxCell id="k3TtQZU8ST6wzHPOBFzH-1" value="aTES Web Site" style="text;html=1;strokeColor=none;fillColor=none;align=left;verticalAlign=middle;whiteSpace=wrap;rounded=0;sketch=1;hachureGap=4;jiggle=2;curveFitting=1;fontFamily=Architects Daughter;fontSource=https%3A%2F%2Ffonts.googleapis.com%2Fcss%3Ffamily%3DArchitects%2BDaughter;fontSize=20;" parent="1" vertex="1">
          <mxGeometry x="140" y="129" width="200" height="30" as="geometry" />
        </mxCell>
        <mxCell id="k3TtQZU8ST6wzHPOBFzH-6" value="" style="endArrow=none;html=1;sketch=1;hachureGap=4;jiggle=2;curveFitting=1;fontFamily=Architects Daughter;fontSource=https%3A%2F%2Ffonts.googleapis.com%2Fcss%3Ffamily%3DArchitects%2BDaughter;fontSize=16;" parent="1" edge="1">
          <mxGeometry width="50" height="50" relative="1" as="geometry">
            <mxPoint x="140" y="169" as="sourcePoint" />
            <mxPoint x="460" y="169" as="targetPoint" />
          </mxGeometry>
        </mxCell>
        <mxCell id="k3TtQZU8ST6wzHPOBFzH-19" value="Tasks List" style="text;html=1;strokeColor=none;fillColor=none;align=left;verticalAlign=middle;whiteSpace=wrap;rounded=0;sketch=1;hachureGap=4;jiggle=2;curveFitting=1;fontFamily=Architects Daughter;fontSource=https%3A%2F%2Ffonts.googleapis.com%2Fcss%3Ffamily%3DArchitects%2BDaughter;fontSize=20;fontStyle=4" parent="1" vertex="1">
          <mxGeometry x="140" y="190" width="130" height="30" as="geometry" />
        </mxCell>
        <mxCell id="k3TtQZU8ST6wzHPOBFzH-20" value="Assigned To You" style="text;html=1;strokeColor=none;fillColor=none;align=left;verticalAlign=middle;whiteSpace=wrap;rounded=0;sketch=1;hachureGap=4;jiggle=2;curveFitting=1;fontFamily=Architects Daughter;fontSource=https%3A%2F%2Ffonts.googleapis.com%2Fcss%3Ffamily%3DArchitects%2BDaughter;fontSize=20;fontStyle=4" parent="1" vertex="1">
          <mxGeometry x="560" y="190" width="170" height="30" as="geometry" />
        </mxCell>
        <mxCell id="k3TtQZU8ST6wzHPOBFzH-41" value="" style="group" parent="1" vertex="1" connectable="0">
          <mxGeometry x="140" y="240" width="380" height="100" as="geometry" />
        </mxCell>
        <mxCell id="k3TtQZU8ST6wzHPOBFzH-2" value="" style="rounded=1;whiteSpace=wrap;html=1;sketch=1;hachureGap=4;jiggle=2;curveFitting=1;fontFamily=Architects Daughter;fontSource=https%3A%2F%2Ffonts.googleapis.com%2Fcss%3Ffamily%3DArchitects%2BDaughter;fontSize=20;container=0;" parent="k3TtQZU8ST6wzHPOBFzH-41" vertex="1">
          <mxGeometry width="380" height="100" as="geometry" />
        </mxCell>
        <mxCell id="k3TtQZU8ST6wzHPOBFzH-4" value="Task #1 In Progress" style="text;html=1;strokeColor=none;fillColor=none;align=left;verticalAlign=middle;whiteSpace=wrap;rounded=0;sketch=1;hachureGap=4;jiggle=2;curveFitting=1;fontFamily=Architects Daughter;fontSource=https%3A%2F%2Ffonts.googleapis.com%2Fcss%3Ffamily%3DArchitects%2BDaughter;fontSize=20;fontStyle=1;container=0;" parent="k3TtQZU8ST6wzHPOBFzH-41" vertex="1">
          <mxGeometry x="10" y="10" width="210" height="30" as="geometry" />
        </mxCell>
        <mxCell id="k3TtQZU8ST6wzHPOBFzH-5" value="[back] Create Auth Service" style="text;html=1;strokeColor=none;fillColor=none;align=left;verticalAlign=middle;whiteSpace=wrap;rounded=0;sketch=1;hachureGap=4;jiggle=2;curveFitting=1;fontFamily=Architects Daughter;fontSource=https%3A%2F%2Ffonts.googleapis.com%2Fcss%3Ffamily%3DArchitects%2BDaughter;fontSize=20;fontStyle=4;container=0;" parent="k3TtQZU8ST6wzHPOBFzH-41" vertex="1">
          <mxGeometry x="10" y="40" width="360" height="30" as="geometry" />
        </mxCell>
        <mxCell id="k3TtQZU8ST6wzHPOBFzH-9" value="Details" style="text;html=1;strokeColor=none;fillColor=none;align=left;verticalAlign=middle;whiteSpace=wrap;rounded=0;sketch=1;hachureGap=4;jiggle=2;curveFitting=1;fontFamily=Architects Daughter;fontSource=https%3A%2F%2Ffonts.googleapis.com%2Fcss%3Ffamily%3DArchitects%2BDaughter;fontSize=18;fontStyle=4;fontColor=#999999;container=0;" parent="k3TtQZU8ST6wzHPOBFzH-41" vertex="1">
          <mxGeometry x="10" y="70" width="70" height="30" as="geometry" />
        </mxCell>
        <mxCell id="k3TtQZU8ST6wzHPOBFzH-39" value="Assigned to Popug A" style="text;html=1;strokeColor=none;fillColor=none;align=right;verticalAlign=middle;whiteSpace=wrap;rounded=0;sketch=1;hachureGap=4;jiggle=2;curveFitting=1;fontFamily=Architects Daughter;fontSource=https%3A%2F%2Ffonts.googleapis.com%2Fcss%3Ffamily%3DArchitects%2BDaughter;fontSize=16;fontStyle=2;fontColor=#999999;container=0;" parent="k3TtQZU8ST6wzHPOBFzH-41" vertex="1">
          <mxGeometry x="180" y="70" width="190" height="30" as="geometry" />
        </mxCell>
        <mxCell id="k3TtQZU8ST6wzHPOBFzH-42" value="" style="group" parent="1" vertex="1" connectable="0">
          <mxGeometry x="560" y="240" width="380" height="100" as="geometry" />
        </mxCell>
        <mxCell id="k3TtQZU8ST6wzHPOBFzH-43" value="" style="rounded=1;whiteSpace=wrap;html=1;sketch=1;hachureGap=4;jiggle=2;curveFitting=1;fontFamily=Architects Daughter;fontSource=https%3A%2F%2Ffonts.googleapis.com%2Fcss%3Ffamily%3DArchitects%2BDaughter;fontSize=20;container=0;" parent="k3TtQZU8ST6wzHPOBFzH-42" vertex="1">
          <mxGeometry width="380" height="100" as="geometry" />
        </mxCell>
        <mxCell id="k3TtQZU8ST6wzHPOBFzH-44" value="Task #1" style="text;html=1;strokeColor=none;fillColor=none;align=left;verticalAlign=middle;whiteSpace=wrap;rounded=0;sketch=1;hachureGap=4;jiggle=2;curveFitting=1;fontFamily=Architects Daughter;fontSource=https%3A%2F%2Ffonts.googleapis.com%2Fcss%3Ffamily%3DArchitects%2BDaughter;fontSize=20;fontStyle=1;container=0;" parent="k3TtQZU8ST6wzHPOBFzH-42" vertex="1">
          <mxGeometry x="10" y="10" width="140" height="30" as="geometry" />
        </mxCell>
        <mxCell id="k3TtQZU8ST6wzHPOBFzH-45" value="Create Auth Service" style="text;html=1;strokeColor=none;fillColor=none;align=left;verticalAlign=middle;whiteSpace=wrap;rounded=0;sketch=1;hachureGap=4;jiggle=2;curveFitting=1;fontFamily=Architects Daughter;fontSource=https%3A%2F%2Ffonts.googleapis.com%2Fcss%3Ffamily%3DArchitects%2BDaughter;fontSize=20;fontStyle=4;container=0;" parent="k3TtQZU8ST6wzHPOBFzH-42" vertex="1">
          <mxGeometry x="10" y="40" width="260" height="30" as="geometry" />
        </mxCell>
        <mxCell id="k3TtQZU8ST6wzHPOBFzH-46" value="X" style="text;html=1;strokeColor=none;fillColor=none;align=right;verticalAlign=middle;whiteSpace=wrap;rounded=0;sketch=1;hachureGap=4;jiggle=2;curveFitting=1;fontFamily=Architects Daughter;fontSource=https%3A%2F%2Ffonts.googleapis.com%2Fcss%3Ffamily%3DArchitects%2BDaughter;fontSize=20;container=0;" parent="k3TtQZU8ST6wzHPOBFzH-42" vertex="1">
          <mxGeometry x="320" width="50" height="30" as="geometry" />
        </mxCell>
        <mxCell id="k3TtQZU8ST6wzHPOBFzH-47" value="Details" style="text;html=1;strokeColor=none;fillColor=none;align=left;verticalAlign=middle;whiteSpace=wrap;rounded=0;sketch=1;hachureGap=4;jiggle=2;curveFitting=1;fontFamily=Architects Daughter;fontSource=https%3A%2F%2Ffonts.googleapis.com%2Fcss%3Ffamily%3DArchitects%2BDaughter;fontSize=18;fontStyle=4;fontColor=#999999;container=0;" parent="k3TtQZU8ST6wzHPOBFzH-42" vertex="1">
          <mxGeometry x="10" y="70" width="70" height="30" as="geometry" />
        </mxCell>
        <mxCell id="k3TtQZU8ST6wzHPOBFzH-48" value="Assigned to Popug A" style="text;html=1;strokeColor=none;fillColor=none;align=right;verticalAlign=middle;whiteSpace=wrap;rounded=0;sketch=1;hachureGap=4;jiggle=2;curveFitting=1;fontFamily=Architects Daughter;fontSource=https%3A%2F%2Ffonts.googleapis.com%2Fcss%3Ffamily%3DArchitects%2BDaughter;fontSize=16;fontStyle=2;fontColor=#999999;container=0;" parent="k3TtQZU8ST6wzHPOBFzH-42" vertex="1">
          <mxGeometry x="180" y="70" width="190" height="30" as="geometry" />
        </mxCell>
        <mxCell id="k3TtQZU8ST6wzHPOBFzH-49" value="" style="group" parent="1" vertex="1" connectable="0">
          <mxGeometry x="140" y="360" width="380" height="100" as="geometry" />
        </mxCell>
        <mxCell id="k3TtQZU8ST6wzHPOBFzH-50" value="" style="rounded=1;whiteSpace=wrap;html=1;sketch=1;hachureGap=4;jiggle=2;curveFitting=1;fontFamily=Architects Daughter;fontSource=https%3A%2F%2Ffonts.googleapis.com%2Fcss%3Ffamily%3DArchitects%2BDaughter;fontSize=20;container=0;" parent="k3TtQZU8ST6wzHPOBFzH-49" vertex="1">
          <mxGeometry width="380" height="100" as="geometry" />
        </mxCell>
        <mxCell id="k3TtQZU8ST6wzHPOBFzH-51" value="Task #12 Opened" style="text;html=1;strokeColor=none;fillColor=none;align=left;verticalAlign=middle;whiteSpace=wrap;rounded=0;sketch=1;hachureGap=4;jiggle=2;curveFitting=1;fontFamily=Architects Daughter;fontSource=https%3A%2F%2Ffonts.googleapis.com%2Fcss%3Ffamily%3DArchitects%2BDaughter;fontSize=20;fontStyle=1;container=0;" parent="k3TtQZU8ST6wzHPOBFzH-49" vertex="1">
          <mxGeometry x="10" y="10" width="180" height="30" as="geometry" />
        </mxCell>
        <mxCell id="k3TtQZU8ST6wzHPOBFzH-52" value="Move the button for 1 pixel left" style="text;html=1;strokeColor=none;fillColor=none;align=left;verticalAlign=middle;whiteSpace=wrap;rounded=0;sketch=1;hachureGap=4;jiggle=2;curveFitting=1;fontFamily=Architects Daughter;fontSource=https%3A%2F%2Ffonts.googleapis.com%2Fcss%3Ffamily%3DArchitects%2BDaughter;fontSize=20;fontStyle=4;container=0;" parent="k3TtQZU8ST6wzHPOBFzH-49" vertex="1">
          <mxGeometry x="10" y="40" width="360" height="30" as="geometry" />
        </mxCell>
        <mxCell id="k3TtQZU8ST6wzHPOBFzH-54" value="Details" style="text;html=1;strokeColor=none;fillColor=none;align=left;verticalAlign=middle;whiteSpace=wrap;rounded=0;sketch=1;hachureGap=4;jiggle=2;curveFitting=1;fontFamily=Architects Daughter;fontSource=https%3A%2F%2Ffonts.googleapis.com%2Fcss%3Ffamily%3DArchitects%2BDaughter;fontSize=18;fontStyle=4;fontColor=#999999;container=0;" parent="k3TtQZU8ST6wzHPOBFzH-49" vertex="1">
          <mxGeometry x="10" y="70" width="70" height="30" as="geometry" />
        </mxCell>
        <mxCell id="k3TtQZU8ST6wzHPOBFzH-55" value="Assigned to Popug F" style="text;html=1;strokeColor=none;fillColor=none;align=right;verticalAlign=middle;whiteSpace=wrap;rounded=0;sketch=1;hachureGap=4;jiggle=2;curveFitting=1;fontFamily=Architects Daughter;fontSource=https%3A%2F%2Ffonts.googleapis.com%2Fcss%3Ffamily%3DArchitects%2BDaughter;fontSize=16;fontStyle=2;fontColor=#999999;container=0;" parent="k3TtQZU8ST6wzHPOBFzH-49" vertex="1">
          <mxGeometry x="180" y="70" width="190" height="30" as="geometry" />
        </mxCell>
        <mxCell id="k3TtQZU8ST6wzHPOBFzH-56" value="" style="group" parent="1" vertex="1" connectable="0">
          <mxGeometry x="140" y="480" width="380" height="100" as="geometry" />
        </mxCell>
        <mxCell id="k3TtQZU8ST6wzHPOBFzH-57" value="" style="rounded=1;whiteSpace=wrap;html=1;sketch=1;hachureGap=4;jiggle=2;curveFitting=1;fontFamily=Architects Daughter;fontSource=https%3A%2F%2Ffonts.googleapis.com%2Fcss%3Ffamily%3DArchitects%2BDaughter;fontSize=20;container=0;" parent="k3TtQZU8ST6wzHPOBFzH-56" vertex="1">
          <mxGeometry width="380" height="100" as="geometry" />
        </mxCell>
        <mxCell id="k3TtQZU8ST6wzHPOBFzH-58" value="Task #15 Opened" style="text;html=1;strokeColor=none;fillColor=none;align=left;verticalAlign=middle;whiteSpace=wrap;rounded=0;sketch=1;hachureGap=4;jiggle=2;curveFitting=1;fontFamily=Architects Daughter;fontSource=https%3A%2F%2Ffonts.googleapis.com%2Fcss%3Ffamily%3DArchitects%2BDaughter;fontSize=20;fontStyle=1;container=0;" parent="k3TtQZU8ST6wzHPOBFzH-56" vertex="1">
          <mxGeometry x="10" y="10" width="190" height="30" as="geometry" />
        </mxCell>
        <mxCell id="k3TtQZU8ST6wzHPOBFzH-59" value="Write a help-chart" style="text;html=1;strokeColor=none;fillColor=none;align=left;verticalAlign=middle;whiteSpace=wrap;rounded=0;sketch=1;hachureGap=4;jiggle=2;curveFitting=1;fontFamily=Architects Daughter;fontSource=https%3A%2F%2Ffonts.googleapis.com%2Fcss%3Ffamily%3DArchitects%2BDaughter;fontSize=20;fontStyle=4;container=0;" parent="k3TtQZU8ST6wzHPOBFzH-56" vertex="1">
          <mxGeometry x="10" y="40" width="260" height="30" as="geometry" />
        </mxCell>
        <mxCell id="k3TtQZU8ST6wzHPOBFzH-61" value="Details" style="text;html=1;strokeColor=none;fillColor=none;align=left;verticalAlign=middle;whiteSpace=wrap;rounded=0;sketch=1;hachureGap=4;jiggle=2;curveFitting=1;fontFamily=Architects Daughter;fontSource=https%3A%2F%2Ffonts.googleapis.com%2Fcss%3Ffamily%3DArchitects%2BDaughter;fontSize=18;fontStyle=4;fontColor=#999999;container=0;" parent="k3TtQZU8ST6wzHPOBFzH-56" vertex="1">
          <mxGeometry x="10" y="70" width="70" height="30" as="geometry" />
        </mxCell>
        <mxCell id="k3TtQZU8ST6wzHPOBFzH-62" value="Not Assigned" style="text;html=1;strokeColor=none;fillColor=none;align=right;verticalAlign=middle;whiteSpace=wrap;rounded=0;sketch=1;hachureGap=4;jiggle=2;curveFitting=1;fontFamily=Architects Daughter;fontSource=https%3A%2F%2Ffonts.googleapis.com%2Fcss%3Ffamily%3DArchitects%2BDaughter;fontSize=16;fontStyle=2;fontColor=#999999;container=0;" parent="k3TtQZU8ST6wzHPOBFzH-56" vertex="1">
          <mxGeometry x="180" y="70" width="190" height="30" as="geometry" />
        </mxCell>
        <mxCell id="k3TtQZU8ST6wzHPOBFzH-63" value="" style="group" parent="1" vertex="1" connectable="0">
          <mxGeometry x="140" y="600" width="380" height="100" as="geometry" />
        </mxCell>
        <mxCell id="k3TtQZU8ST6wzHPOBFzH-64" value="" style="rounded=1;whiteSpace=wrap;html=1;sketch=1;hachureGap=4;jiggle=2;curveFitting=1;fontFamily=Architects Daughter;fontSource=https%3A%2F%2Ffonts.googleapis.com%2Fcss%3Ffamily%3DArchitects%2BDaughter;fontSize=20;container=0;" parent="k3TtQZU8ST6wzHPOBFzH-63" vertex="1">
          <mxGeometry width="380" height="100" as="geometry" />
        </mxCell>
        <mxCell id="k3TtQZU8ST6wzHPOBFzH-65" value="Task #17 Opened" style="text;html=1;strokeColor=none;fillColor=none;align=left;verticalAlign=middle;whiteSpace=wrap;rounded=0;sketch=1;hachureGap=4;jiggle=2;curveFitting=1;fontFamily=Architects Daughter;fontSource=https%3A%2F%2Ffonts.googleapis.com%2Fcss%3Ffamily%3DArchitects%2BDaughter;fontSize=20;fontStyle=1;container=0;" parent="k3TtQZU8ST6wzHPOBFzH-63" vertex="1">
          <mxGeometry x="10" y="10" width="170" height="30" as="geometry" />
        </mxCell>
        <mxCell id="k3TtQZU8ST6wzHPOBFzH-66" value="Install Kubernetes (or k3s at least)" style="text;html=1;strokeColor=none;fillColor=none;align=left;verticalAlign=middle;whiteSpace=wrap;rounded=0;sketch=1;hachureGap=4;jiggle=2;curveFitting=1;fontFamily=Architects Daughter;fontSource=https%3A%2F%2Ffonts.googleapis.com%2Fcss%3Ffamily%3DArchitects%2BDaughter;fontSize=20;fontStyle=4;container=0;" parent="k3TtQZU8ST6wzHPOBFzH-63" vertex="1">
          <mxGeometry x="10" y="40" width="360" height="30" as="geometry" />
        </mxCell>
        <mxCell id="k3TtQZU8ST6wzHPOBFzH-68" value="Details" style="text;html=1;strokeColor=none;fillColor=none;align=left;verticalAlign=middle;whiteSpace=wrap;rounded=0;sketch=1;hachureGap=4;jiggle=2;curveFitting=1;fontFamily=Architects Daughter;fontSource=https%3A%2F%2Ffonts.googleapis.com%2Fcss%3Ffamily%3DArchitects%2BDaughter;fontSize=18;fontStyle=4;fontColor=#999999;container=0;" parent="k3TtQZU8ST6wzHPOBFzH-63" vertex="1">
          <mxGeometry x="10" y="70" width="70" height="30" as="geometry" />
        </mxCell>
        <mxCell id="k3TtQZU8ST6wzHPOBFzH-69" value="Not Assigned" style="text;html=1;strokeColor=none;fillColor=none;align=right;verticalAlign=middle;whiteSpace=wrap;rounded=0;sketch=1;hachureGap=4;jiggle=2;curveFitting=1;fontFamily=Architects Daughter;fontSource=https%3A%2F%2Ffonts.googleapis.com%2Fcss%3Ffamily%3DArchitects%2BDaughter;fontSize=16;fontStyle=2;fontColor=#999999;container=0;" parent="k3TtQZU8ST6wzHPOBFzH-63" vertex="1">
          <mxGeometry x="180" y="70" width="190" height="30" as="geometry" />
        </mxCell>
        <mxCell id="k3TtQZU8ST6wzHPOBFzH-70" value="Quit the Job" style="rounded=1;whiteSpace=wrap;html=1;sketch=1;hachureGap=4;jiggle=2;curveFitting=1;fontFamily=Architects Daughter;fontSource=https%3A%2F%2Ffonts.googleapis.com%2Fcss%3Ffamily%3DArchitects%2BDaughter;fontSize=20;fillColor=#f8cecc;strokeColor=#b85450;" parent="1" vertex="1">
          <mxGeometry x="810" y="140" width="130" height="30" as="geometry" />
        </mxCell>
      </root>
    </mxGraphModel>
  </diagram>
  <diagram id="JAGMBTgsP2n50j1jireI" name="Tasks svc">
    <mxGraphModel dx="1434" dy="963" grid="1" gridSize="10" guides="1" tooltips="1" connect="1" arrows="1" fold="1" page="1" pageScale="1" pageWidth="1100" pageHeight="850" math="0" shadow="0">
      <root>
        <mxCell id="0" />
        <mxCell id="1" parent="0" />
        <mxCell id="0dTEVbLupKsCk1bKUCje-7" style="edgeStyle=none;html=1;exitX=0;exitY=0.5;exitDx=0;exitDy=0;entryX=1;entryY=0.5;entryDx=0;entryDy=0;labelBackgroundColor=#FFFFCC;labelBorderColor=#B3B3B3;startArrow=none;startFill=0;endArrow=classic;endFill=1;" parent="1" source="0dTEVbLupKsCk1bKUCje-1" target="0dTEVbLupKsCk1bKUCje-3" edge="1">
          <mxGeometry relative="1" as="geometry" />
        </mxCell>
        <mxCell id="0dTEVbLupKsCk1bKUCje-1" value="Tasks svc" style="rounded=1;whiteSpace=wrap;html=1;fillColor=#dae8fc;strokeColor=#6c8ebf;" parent="1" vertex="1">
          <mxGeometry x="290" y="250" width="120" height="60" as="geometry" />
        </mxCell>
        <mxCell id="0dTEVbLupKsCk1bKUCje-4" value="" style="endArrow=classic;startArrow=none;html=1;exitX=1;exitY=0.5;exitDx=0;exitDy=0;entryX=0;entryY=0.5;entryDx=0;entryDy=0;startFill=0;" parent="1" source="0dTEVbLupKsCk1bKUCje-1" target="0dTEVbLupKsCk1bKUCje-2" edge="1">
          <mxGeometry width="50" height="50" relative="1" as="geometry">
            <mxPoint x="610" y="430" as="sourcePoint" />
            <mxPoint x="650" y="430" as="targetPoint" />
          </mxGeometry>
        </mxCell>
        <mxCell id="BlLeEv8gf88hcayQSXwR-2" value="&lt;h1&gt;Tasks service&lt;/h1&gt;&lt;p&gt;Service keeps information:&lt;br&gt;- about Tasks itself,&lt;br style=&quot;border-color: var(--border-color);&quot;&gt;- about Tasks statuses,&lt;br&gt;- about assign relations Tasks-Users.&lt;/p&gt;" style="text;html=1;strokeColor=none;fillColor=none;spacing=5;spacingTop=-20;whiteSpace=wrap;overflow=hidden;rounded=0;dashed=1;labelBackgroundColor=none;fillStyle=dots;" parent="1" vertex="1">
          <mxGeometry x="40" y="40" width="250" height="120" as="geometry" />
        </mxCell>
        <mxCell id="0dTEVbLupKsCk1bKUCje-3" value="Message&lt;br&gt;Broker" style="rounded=1;whiteSpace=wrap;html=1;fillColor=#ffe6cc;strokeColor=#d79b00;" parent="1" vertex="1">
          <mxGeometry x="50" y="250" width="120" height="60" as="geometry" />
        </mxCell>
        <mxCell id="0dTEVbLupKsCk1bKUCje-2" value="DB" style="shape=datastore;whiteSpace=wrap;html=1;fillColor=#dae8fc;strokeColor=#6c8ebf;" parent="1" vertex="1">
          <mxGeometry x="530" y="250" width="60" height="60" as="geometry" />
        </mxCell>
        <mxCell id="1vU2kzT3AHBSm3y6f9m7-1" value="Message described in file ./schemas/nats/tasks.json" style="ellipse;shape=cloud;whiteSpace=wrap;html=1;labelBackgroundColor=none;strokeColor=#CCCCCC;fillColor=#FFFFCC;" vertex="1" parent="1">
          <mxGeometry x="30" y="360" width="210" height="90" as="geometry" />
        </mxCell>
        <mxCell id="1vU2kzT3AHBSm3y6f9m7-2" value="Database schema described in file ./schemas/postgresql/tasks/202402181100.sql" style="ellipse;shape=cloud;whiteSpace=wrap;html=1;labelBackgroundColor=none;strokeColor=#CCCCCC;fillColor=#FFFFCC;" vertex="1" parent="1">
          <mxGeometry x="470" y="360" width="370" height="90" as="geometry" />
        </mxCell>
        <mxCell id="1vU2kzT3AHBSm3y6f9m7-4" value="" style="endArrow=none;dashed=1;html=1;dashPattern=1 3;strokeWidth=2;rounded=0;entryX=0.25;entryY=0.25;entryDx=0;entryDy=0;entryPerimeter=0;exitX=0.15;exitY=0.95;exitDx=0;exitDy=0;exitPerimeter=0;" edge="1" parent="1" source="0dTEVbLupKsCk1bKUCje-2" target="1vU2kzT3AHBSm3y6f9m7-2">
          <mxGeometry width="50" height="50" relative="1" as="geometry">
            <mxPoint x="570" y="460" as="sourcePoint" />
            <mxPoint x="620" y="410" as="targetPoint" />
          </mxGeometry>
        </mxCell>
        <mxCell id="1vU2kzT3AHBSm3y6f9m7-6" value="" style="endArrow=none;dashed=1;html=1;dashPattern=1 3;strokeWidth=2;rounded=0;exitX=0.625;exitY=0.2;exitDx=0;exitDy=0;exitPerimeter=0;" edge="1" parent="1" source="1vU2kzT3AHBSm3y6f9m7-1">
          <mxGeometry width="50" height="50" relative="1" as="geometry">
            <mxPoint x="570" y="460" as="sourcePoint" />
            <mxPoint x="240" y="280" as="targetPoint" />
          </mxGeometry>
        </mxCell>
        <mxCell id="1vU2kzT3AHBSm3y6f9m7-7" value="Service API described in file &lt;br&gt;./schemas/openapi/tasks.yml" style="ellipse;shape=cloud;whiteSpace=wrap;html=1;labelBackgroundColor=none;strokeColor=#CCCCCC;fillColor=#FFFFCC;" vertex="1" parent="1">
          <mxGeometry x="190" y="450" width="290" height="90" as="geometry" />
        </mxCell>
        <mxCell id="1vU2kzT3AHBSm3y6f9m7-8" value="" style="endArrow=none;dashed=1;html=1;dashPattern=1 3;strokeWidth=2;rounded=0;entryX=0.25;entryY=0.25;entryDx=0;entryDy=0;entryPerimeter=0;exitX=0.25;exitY=1;exitDx=0;exitDy=0;" edge="1" parent="1" source="0dTEVbLupKsCk1bKUCje-1" target="1vU2kzT3AHBSm3y6f9m7-7">
          <mxGeometry width="50" height="50" relative="1" as="geometry">
            <mxPoint x="549" y="317" as="sourcePoint" />
            <mxPoint x="573" y="393" as="targetPoint" />
          </mxGeometry>
        </mxCell>
      </root>
    </mxGraphModel>
  </diagram>
</mxfile>
